<svg width="17" height="17" viewBox="0 0 17 17" fill="none" xmlns="http://www.w3.org/2000/svg">
<path d="M4.61816 8.62305C5.32709 8.63283 5.76061 8.67268 6.11914 8.8291C6.6968 9.08133 7.15801 9.54242 7.41016 10.1201C7.61871 10.5982 7.61914 11.209 7.61914 12.4297L7.61621 13.2383C7.60643 13.9473 7.56657 14.3807 7.41016 14.7393L7.30664 14.9502C7.04157 15.429 6.62469 15.8095 6.11914 16.0303L5.93262 16.0996C5.47882 16.2394 4.87771 16.2393 3.80957 16.2393L3.00098 16.2363C2.29199 16.2266 1.85855 16.1866 1.5 16.0303C0.994373 15.8096 0.577622 15.4291 0.3125 14.9502L0.208984 14.7393C0.0525419 14.3807 0.0127085 13.9473 0.00292969 13.2383L0 12.4297C0 11.3614 -0.000133155 10.7605 0.139648 10.3066L0.208984 10.1201C0.42971 9.61448 0.81015 9.19771 1.28906 8.93262L1.5 8.8291C1.97807 8.6206 2.58898 8.62012 3.80957 8.62012L4.61816 8.62305ZM13.2373 8.62305C13.9462 8.63283 14.3798 8.67269 14.7383 8.8291C15.3159 9.08134 15.7772 9.54245 16.0293 10.1201C16.2378 10.5982 16.2383 11.209 16.2383 12.4297L16.2354 13.2383C16.2256 13.9473 16.1857 14.3807 16.0293 14.7393L15.9258 14.9502C15.6607 15.429 15.2438 15.8095 14.7383 16.0303L14.5518 16.0996C14.098 16.2394 13.4968 16.2393 12.4287 16.2393L11.6201 16.2363C10.9112 16.2266 10.4777 16.1866 10.1191 16.0303C9.61353 15.8096 9.19676 15.429 8.93164 14.9502L8.82812 14.7393C8.67168 14.3807 8.63185 13.9473 8.62207 13.2383L8.61914 12.4297C8.61914 11.3614 8.61901 10.7605 8.75879 10.3066L8.82812 10.1201C9.04885 9.6145 9.4293 9.19771 9.9082 8.93262L10.1191 8.8291C10.5972 8.62064 11.2082 8.62012 12.4287 8.62012L13.2373 8.62305ZM12.4287 9.53711C11.8054 9.53711 11.3852 9.53737 11.0605 9.56055C10.7454 9.58308 10.5899 9.62386 10.4863 9.66895C10.1203 9.82864 9.8277 10.1213 9.66797 10.4873C9.62283 10.5909 9.58213 10.7461 9.55957 11.0615C9.53637 11.3862 9.53613 11.8061 9.53613 12.4297C9.53613 13.0532 9.53637 13.4732 9.55957 13.7979C9.58213 14.1133 9.62282 14.2685 9.66797 14.3721C9.8277 14.7381 10.1203 15.0307 10.4863 15.1904C10.5899 15.2355 10.7455 15.2763 11.0605 15.2988C11.3852 15.322 11.8054 15.3223 12.4287 15.3223C13.052 15.3223 13.4722 15.322 13.7969 15.2988C14.112 15.2763 14.2676 15.2356 14.3711 15.1904C14.737 15.0307 15.0298 14.738 15.1895 14.3721C15.2346 14.2685 15.2753 14.1131 15.2979 13.7979C15.321 13.4732 15.3213 13.0532 15.3213 12.4297C15.3213 11.8062 15.321 11.3862 15.2979 11.0615C15.2753 10.7463 15.2346 10.5909 15.1895 10.4873C15.0298 10.1213 14.737 9.82869 14.3711 9.66895C14.2676 9.62382 14.1121 9.58311 13.7969 9.56055C13.4722 9.53735 13.052 9.53711 12.4287 9.53711ZM3.80957 9.53711C3.18619 9.53711 2.76608 9.53737 2.44141 9.56055C2.12619 9.58309 1.97075 9.62384 1.86719 9.66895C1.50114 9.82865 1.20855 10.1213 1.04883 10.4873C1.00369 10.5909 0.962985 10.7461 0.94043 11.0615C0.917231 11.3862 0.916992 11.8061 0.916992 12.4297C0.916992 13.0532 0.917232 13.4732 0.94043 13.7979C0.962992 14.1133 1.00368 14.2685 1.04883 14.3721C1.20855 14.7381 1.50114 15.0307 1.86719 15.1904C1.97075 15.2355 2.12622 15.2763 2.44141 15.2988C2.76608 15.322 3.18619 15.3223 3.80957 15.3223C4.43295 15.3223 4.85308 15.322 5.17773 15.2988C5.49299 15.2763 5.64843 15.2356 5.75195 15.1904C6.11793 15.0307 6.41063 14.7381 6.57031 14.3721C6.61544 14.2685 6.65616 14.1132 6.67871 13.7979C6.70191 13.4732 6.70215 13.0532 6.70215 12.4297C6.70215 11.8062 6.70191 11.3862 6.67871 11.0615C6.65616 10.7462 6.61543 10.5909 6.57031 10.4873C6.41063 10.1213 6.11793 9.82868 5.75195 9.66895C5.64843 9.62381 5.49302 9.58311 5.17773 9.56055C4.85308 9.53735 4.43295 9.53711 3.80957 9.53711ZM4.61816 0.00390625C5.32706 0.0136918 5.76062 0.0535395 6.11914 0.209961C6.69676 0.462195 7.15802 0.923303 7.41016 1.50098C7.61865 1.97905 7.61914 2.58997 7.61914 3.81055L7.61621 4.61914C7.60643 5.32813 7.56659 5.76157 7.41016 6.12012L7.30664 6.33105C7.04157 6.80991 6.6247 7.1904 6.11914 7.41113L5.93262 7.48047C5.47883 7.62025 4.87768 7.62012 3.80957 7.62012L3.00098 7.61719C2.29204 7.60741 1.85853 7.56748 1.5 7.41113C0.994416 7.19046 0.577626 6.80987 0.3125 6.33105L0.208984 6.12012C0.0525519 5.76157 0.0127117 5.32813 0.00292969 4.61914L0 3.81055C0 2.74231 -0.00011983 2.14132 0.139648 1.6875L0.208984 1.50098C0.429704 0.995303 0.810122 0.578588 1.28906 0.313477L1.5 0.209961C1.97807 0.00145045 2.58897 0.000976562 3.80957 0.000976562L4.61816 0.00390625ZM13.2373 0.00390625C13.9461 0.0136952 14.3798 0.0535501 14.7383 0.209961C15.3158 0.462218 15.7772 0.923386 16.0293 1.50098C16.2376 1.979 16.2383 2.59026 16.2383 3.81055L16.2354 4.61914C16.2256 5.32793 16.1857 5.76163 16.0293 6.12012L15.9258 6.33105C15.6607 6.80982 15.2438 7.19043 14.7383 7.41113L14.5518 7.48047C14.098 7.62025 13.4967 7.62012 12.4287 7.62012L11.6201 7.61719C10.9113 7.60742 10.4776 7.56739 10.1191 7.41113C9.61367 7.19051 9.19677 6.80971 8.93164 6.33105L8.82812 6.12012C8.67172 5.76163 8.63186 5.32792 8.62207 4.61914L8.61914 3.81055C8.61914 2.74253 8.61911 2.14129 8.75879 1.6875L8.82812 1.50098C9.04885 0.995303 9.42926 0.578588 9.9082 0.313477L10.1191 0.209961C10.5972 0.00144544 11.2081 0 12.4287 0L13.2373 0.00390625ZM3.80957 0.917969C3.18621 0.917969 2.76607 0.918227 2.44141 0.941406C2.12617 0.963948 1.97075 1.0047 1.86719 1.0498C1.50111 1.20952 1.20854 1.50209 1.04883 1.86816C1.00369 1.97173 0.962985 2.12696 0.94043 2.44238C0.917239 2.76707 0.916992 3.18708 0.916992 3.81055C0.916992 4.43399 0.917233 4.85404 0.94043 5.17871C0.962994 5.49405 1.00369 5.64939 1.04883 5.75293C1.20857 6.1189 1.50119 6.4116 1.86719 6.57129C1.97075 6.61637 2.1263 6.65716 2.44141 6.67969C2.76607 6.70287 3.18622 6.70312 3.80957 6.70312C4.43293 6.70312 4.85309 6.70288 5.17773 6.67969C5.49296 6.65712 5.64843 6.61642 5.75195 6.57129C6.11794 6.41156 6.41062 6.11894 6.57031 5.75293C6.61545 5.64939 6.65615 5.49405 6.67871 5.17871C6.70191 4.85404 6.70215 4.43399 6.70215 3.81055C6.70215 3.18711 6.7019 2.76707 6.67871 2.44238C6.65617 2.12721 6.61541 1.97173 6.57031 1.86816C6.41064 1.50219 6.11789 1.20955 5.75195 1.0498C5.64843 1.00467 5.49298 0.963973 5.17773 0.941406C4.85309 0.918212 4.43293 0.917969 3.80957 0.917969ZM12.4287 0.917969C11.8054 0.917969 11.3852 0.918235 11.0605 0.941406C10.7453 0.963949 10.5899 1.0047 10.4863 1.0498C10.1203 1.20952 9.82769 1.50209 9.66797 1.86816C9.62288 1.97173 9.58211 2.12721 9.55957 2.44238C9.5364 2.76702 9.53613 3.1873 9.53613 3.81055C9.53613 4.43379 9.53638 4.8541 9.55957 5.17871C9.58214 5.49381 9.62285 5.64943 9.66797 5.75293C9.82774 6.11874 10.1204 6.41165 10.4863 6.57129C10.5899 6.61633 10.7457 6.65717 11.0605 6.67969C11.3852 6.70285 11.8055 6.70312 12.4287 6.70312C13.052 6.70312 13.4723 6.70288 13.7969 6.67969C14.112 6.65712 14.2676 6.61641 14.3711 6.57129C14.737 6.41159 15.0297 6.11883 15.1895 5.75293C15.2346 5.64943 15.2753 5.49382 15.2979 5.17871C15.321 4.8541 15.3213 4.43379 15.3213 3.81055C15.3213 3.18734 15.321 2.76702 15.2979 2.44238C15.2753 2.12756 15.2345 1.97173 15.1895 1.86816C15.0298 1.50227 14.7369 1.20957 14.3711 1.0498C14.2676 1.00468 14.112 0.963975 13.7969 0.941406C13.4723 0.918214 13.052 0.917969 12.4287 0.917969Z" fill="white"/>
</svg>
