<svg width="46" height="40" viewBox="0 0 46 40" fill="none" xmlns="http://www.w3.org/2000/svg">
<path d="M23.9375 2.27246L36.3828 24L43.9854 37.2725L45.2715 39.5176H0L1.28613 37.2725L21.334 2.27246L22.6357 0L23.9375 2.27246ZM5.17578 36.5176H40.0957L34.6309 26.9766C30.4445 30.0945 26.8031 31.9514 23.041 32.0137C19.0427 32.0798 15.2747 30.1217 10.9277 26.4736L5.17578 36.5176ZM18.5537 21.666C17.011 22.3079 15.3989 23.3347 13.5723 24.7617C17.3708 27.8197 20.2472 29.06 22.9912 29.0146C25.7263 28.9694 28.6416 27.6494 32.5137 24.8125C30.3142 23.37 28.4258 22.368 26.7471 21.7324C26.9839 22.2784 27.1162 22.8806 27.1162 23.5137C27.1162 25.9879 25.11 27.9932 22.6357 27.9932C20.1616 27.9931 18.1563 25.9878 18.1562 23.5137C18.1562 22.8549 18.2983 22.2294 18.5537 21.666ZM14.3281 20.5381C16.8204 18.9404 19.2735 17.9607 21.9707 17.8613C24.7252 17.76 27.5712 18.5802 30.8057 20.2988L22.6357 6.03516L14.3281 20.5381Z" fill="white"/>
</svg>
