<svg width="18" height="19" viewBox="0 0 18 19" fill="none" xmlns="http://www.w3.org/2000/svg">
<path d="M15.7597 6.1547L11.6506 1.96851L13.0042 0.57311C13.3748 0.191037 13.8302 0 14.3704 0C14.9099 0 15.3649 0.191037 15.7356 0.57311L17.0892 1.96851C17.4598 2.35058 17.6532 2.81173 17.6693 3.35194C17.6854 3.8915 17.5081 4.35231 17.1375 4.73438L15.7597 6.1547ZM0.966855 18.19C0.692913 18.19 0.463446 18.0943 0.278454 17.9029C0.0928182 17.7122 0 17.4757 0 17.1933V14.3776C0 14.2447 0.0241714 14.1161 0.0725142 13.9918C0.120857 13.8669 0.193371 13.7546 0.290057 13.655L10.2487 3.38882L14.3578 7.62485L4.39919 17.891C4.30251 17.9907 4.1939 18.0654 4.07336 18.1152C3.95218 18.1651 3.82714 18.19 3.69822 18.19H0.966855Z" fill="#FCFCFC"/>
</svg>
