<svg width="30" height="43" viewBox="0 0 30 43" fill="none" xmlns="http://www.w3.org/2000/svg">
<path d="M15 0C23.2843 0 30 6.71573 30 15C30 19.4779 28.0363 23.4952 24.9248 26.2432L24.4951 26.6982C23.4 27.8532 22.7703 28.7771 22.417 29.7852C22.0626 30.7966 21.9758 31.9219 22.0146 33.501L22.0225 33.8066H22.0098V37.3203L22.0088 37.3477C21.9701 38.0695 21.9164 38.6518 21.7852 39.2109C21.6511 39.7819 21.4458 40.2895 21.1465 40.8838C20.6381 41.8927 19.5972 42.4629 18.5293 42.4629H11.6406C10.525 42.4629 9.50018 41.8459 8.9707 40.8711C8.71475 40.3997 8.47833 39.937 8.30664 39.3682C8.13442 38.7973 8.03947 38.1627 8.00586 37.334L8.00488 37.3145V33.7344H8.01367L8.03613 33.4814C8.17984 31.8789 8.04086 30.7389 7.61719 29.7207C7.1904 28.6953 6.46342 27.7653 5.37793 26.5967L4.93262 26.1182C1.90326 23.374 0 19.4096 0 15C0 6.71573 6.71573 0 15 0ZM10.0967 38.2891C10.1298 38.4802 10.1662 38.6455 10.2109 38.7939C10.3212 39.1592 10.4769 39.4746 10.7197 39.9219C10.9041 40.2609 11.261 40.4736 11.6406 40.4736H18.5293C18.9084 40.4736 19.2263 40.2716 19.3691 39.9883C19.6246 39.4811 19.7609 39.1256 19.8477 38.7559C19.8814 38.6121 19.9072 38.4595 19.9307 38.2891H10.0967ZM9.99512 36.2988H20.0195V33.8066H9.99512V36.2988ZM9.52734 10.3037C7.93378 10.3038 6.6416 11.5959 6.6416 13.1895V14.2588C6.64172 15.8523 7.93385 17.1444 9.52734 17.1445H11.3184V26.125L13.1094 26.1348V17.1445H16.418V26.1523L18.209 26.1611V17.1445H20.0996C21.6931 17.1444 22.9852 15.8522 22.9854 14.2588V13.1895C22.9854 11.5959 21.6931 10.3039 20.0996 10.3037H19.3037C17.7101 10.3038 16.418 11.5959 16.418 13.1895V15.3535H13.1094V13.1895C13.1094 11.5958 11.8173 10.3037 10.2236 10.3037H9.52734ZM10.2236 12.0947C10.8281 12.0947 11.3184 12.585 11.3184 13.1895V15.3535H9.52734C8.92302 15.3534 8.43273 14.8631 8.43262 14.2588V13.1895C8.43262 12.585 8.92295 12.0948 9.52734 12.0947H10.2236ZM20.0996 12.0947C20.704 12.0949 21.1934 12.5851 21.1934 13.1895V14.2588C21.1932 14.8631 20.7039 15.3533 20.0996 15.3535H18.209V13.1895C18.209 12.585 18.6993 12.0948 19.3037 12.0947H20.0996Z" fill="#7B3FF2"/>
</svg>
