<svg width="28" height="35" viewBox="0 0 28 35" fill="none" xmlns="http://www.w3.org/2000/svg">
<path d="M14.4812 29.75C14.8312 29.7208 15.1302 29.5823 15.3781 29.3344C15.626 29.0865 15.75 28.7875 15.75 28.4375C15.75 28.0292 15.6187 27.701 15.3562 27.4531C15.0937 27.2052 14.7583 27.0958 14.35 27.125C13.1542 27.2125 11.8854 26.8844 10.5437 26.1406C9.20208 25.3969 8.35625 24.0479 8.00625 22.0937C7.94792 21.7729 7.79479 21.5104 7.54687 21.3062C7.29896 21.1021 7.01458 21 6.69375 21C6.28542 21 5.95 21.1531 5.6875 21.4594C5.425 21.7656 5.3375 22.1229 5.425 22.5312C5.92083 25.1854 7.0875 27.0812 8.925 28.2187C10.7625 29.3562 12.6146 29.8667 14.4812 29.75ZM14 35C10.0042 35 6.67187 33.6292 4.00312 30.8875C1.33437 28.1458 0 24.7333 0 20.65C0 17.7333 1.15937 14.5615 3.47812 11.1344C5.79687 7.70729 9.30417 3.99583 14 0C18.6958 3.99583 22.2031 7.70729 24.5219 11.1344C26.8406 14.5615 28 17.7333 28 20.65C28 24.7333 26.6656 28.1458 23.9969 30.8875C21.3281 33.6292 17.9958 35 14 35ZM14 31.5C17.0333 31.5 19.5417 30.4719 21.525 28.4156C23.5083 26.3594 24.5 23.7708 24.5 20.65C24.5 18.5208 23.6177 16.1146 21.8531 13.4312C20.0885 10.7479 17.4708 7.81667 14 4.6375C10.5292 7.81667 7.91146 10.7479 6.14687 13.4312C4.38229 16.1146 3.5 18.5208 3.5 20.65C3.5 23.7708 4.49167 26.3594 6.475 28.4156C8.45833 30.4719 10.9667 31.5 14 31.5Z" fill="#E3E3E3"/>
</svg>
