<svg width="22" height="35" viewBox="0 0 22 35" fill="none" xmlns="http://www.w3.org/2000/svg">
<path d="M11.6416 3.72168C12.6319 3.77462 13.5638 3.9147 14.4375 4.14258C15.6004 4.41475 16.6154 4.84757 17.4814 5.44141C18.3721 6.01042 19.0647 6.74029 19.5596 7.63086C20.0544 8.52161 20.3018 9.59845 20.3018 10.8604V11.3057H16.8135V10.749C16.8135 9.90794 16.5535 9.19044 16.0342 8.59668C15.5146 8.00284 14.7964 7.54432 13.8809 7.22266C12.9902 6.9011 11.9759 6.74024 10.8379 6.74023C9.3533 6.74023 8.1157 6.88863 7.12598 7.18555C6.13637 7.45772 5.39424 7.86683 4.89941 8.41113C4.42946 8.93067 4.19434 9.52444 4.19434 10.1924C4.19438 10.9593 4.42937 11.6025 4.89941 12.1221C5.39421 12.6416 6.03748 13.0745 6.8291 13.4209C7.62088 13.7426 8.52459 14.0393 9.53906 14.3115C10.5535 14.5837 11.58 14.8691 12.6191 15.166C13.6831 15.4382 14.7105 15.7597 15.7002 16.1309C16.7145 16.4772 17.6175 16.9225 18.4092 17.4668C19.2256 17.9863 19.8688 18.6543 20.3389 19.4707C20.809 20.2625 21.0439 21.2404 21.0439 22.4033C21.0439 24.2094 20.5987 25.6812 19.708 26.8193C18.8173 27.9327 17.5929 28.7499 16.0342 29.2695C14.7405 29.7007 13.2761 29.9491 11.6416 30.0225V35H8.62598V29.9502C7.93992 29.8822 7.26646 29.7802 6.60645 29.6406C5.34462 29.3684 4.21917 28.9346 3.22949 28.3408C2.23979 27.7222 1.44734 26.9308 0.853516 25.9658C0.284584 25.001 5.18565e-05 23.8134 0 22.4033V22.0322C0.0247433 21.9085 0.0371094 21.7839 0.0371094 21.6602H3.60059C3.60059 21.7344 3.58822 21.859 3.56348 22.0322V22.4404C3.56355 23.43 3.86034 24.2711 4.4541 24.9639C5.04787 25.6566 5.86429 26.1761 6.90332 26.5225C7.96728 26.8441 9.16777 27.0049 10.5039 27.0049C11.0977 27.0049 11.7161 26.9678 12.3594 26.8936C13.0273 26.8193 13.6582 26.6956 14.252 26.5225C14.8705 26.3245 15.4156 26.0772 15.8857 25.7803C16.3805 25.4586 16.764 25.0752 17.0361 24.6299C17.333 24.1598 17.4814 23.5908 17.4814 22.9229C17.4814 22.0816 17.2341 21.3881 16.7393 20.8438C16.2692 20.2748 15.6383 19.8171 14.8467 19.4707C14.0549 19.0996 13.1512 18.778 12.1367 18.5059C11.1471 18.209 10.1204 17.9245 9.05664 17.6523C7.99268 17.3802 6.95295 17.071 5.93848 16.7246C4.94892 16.3535 4.05828 15.9082 3.2666 15.3887C2.47482 14.8443 1.8308 14.1756 1.33594 13.3838C0.865996 12.5921 0.630885 11.6272 0.630859 10.4893C0.630859 9.4253 0.841084 8.47213 1.26172 7.63086C1.70709 6.78963 2.35115 6.0847 3.19238 5.51562C4.0583 4.92189 5.12209 4.47659 6.38379 4.17969C7.07533 4.00341 7.82297 3.87655 8.62598 3.79688V0H11.6416V3.72168Z" fill="white"/>
</svg>
