<svg width="22" height="20" viewBox="0 0 22 20" fill="none" xmlns="http://www.w3.org/2000/svg">
<path d="M11.7666 2.59055e-07C13.6326 2.37439e-07 15.0901 -0.000963157 16.2441 0.124024C17.4118 0.250528 18.3547 0.512867 19.1582 1.09668C19.6457 1.45087 20.0745 1.87971 20.4287 2.36719C21.0124 3.17066 21.2749 4.11282 21.4014 5.28027C21.5264 6.43437 21.5254 7.89255 21.5254 9.75879C21.5254 11.6247 21.5264 13.0823 21.4014 14.2363C21.2749 15.404 21.0125 16.3468 20.4287 17.1504C20.0745 17.6379 19.6457 18.0667 19.1582 18.4209C18.3547 19.0047 17.4117 19.2671 16.2441 19.3936C15.0901 19.5185 13.6325 19.5176 11.7666 19.5176H9.75879C7.89255 19.5176 6.43437 19.5186 5.28027 19.3936C4.11285 19.2671 3.17065 19.0046 2.36719 18.4209C1.87974 18.0667 1.45086 17.6378 1.09668 17.1504C0.512867 16.3468 0.250528 15.404 0.124024 14.2363C-0.000977576 13.0823 1.78149e-07 11.6248 2.59055e-07 9.75879C2.58969e-07 7.89255 -0.00101474 6.43437 0.124024 5.28027C0.250535 4.11277 0.512918 3.17068 1.09668 2.36719C1.45089 1.87965 1.87965 1.45089 2.36719 1.09668C3.17068 0.512918 4.11277 0.250535 5.28027 0.124024C6.43437 -0.00101474 7.89255 2.58969e-07 9.75879 2.59055e-07H11.7666ZM8.97559 1.44629V18.0693C9.22618 18.0697 9.48703 18.0713 9.75879 18.0713H11.7666C13.665 18.0713 15.0307 18.0707 16.0889 17.9561C17.1335 17.8429 17.7926 17.6259 18.3086 17.251C18.6733 16.986 18.9938 16.6645 19.2588 16.2998C19.6336 15.7838 19.8507 15.1254 19.9639 14.0811C20.0785 13.023 20.0791 11.6571 20.0791 9.75879C20.0791 7.86053 20.0785 6.49462 19.9639 5.43652C19.8507 4.39191 19.6337 3.73282 19.2588 3.2168C18.9939 2.85217 18.6732 2.53156 18.3086 2.2666C17.7926 1.89169 17.1335 1.6747 16.0889 1.56152C15.0307 1.44688 13.665 1.44531 11.7666 1.44531H9.75879C9.48703 1.44531 9.22618 1.4459 8.97559 1.44629ZM7.53027 1.45703C6.71096 1.47 6.02597 1.49768 5.43652 1.56152C4.39191 1.6747 3.73282 1.89169 3.2168 2.2666C2.85217 2.53156 2.53156 2.85217 2.2666 3.2168C1.89169 3.73282 1.6747 4.39191 1.56152 5.43652C1.44691 6.49463 1.44531 7.86051 1.44531 9.75879C1.44531 11.6571 1.44689 13.023 1.56152 14.0811C1.6747 15.1255 1.89176 15.7838 2.2666 16.2998C2.53164 16.6646 2.852 16.9859 3.2168 17.251C3.73282 17.6259 4.39191 17.8429 5.43652 17.9561C6.02596 18.0199 6.71097 18.0459 7.53027 18.0586V1.45703ZM15.3105 7.20313C15.613 6.94267 16.0695 6.97696 16.3301 7.2793C16.5903 7.5817 16.5562 8.03831 16.2539 8.29883L15.0225 9.36035C14.8083 9.54493 14.6726 9.66717 14.5801 9.75879C14.6726 9.8505 14.808 9.97333 15.0225 10.1582L16.2539 11.2197C16.5562 11.4804 16.5907 11.9369 16.3301 12.2393C16.0694 12.5411 15.6128 12.5748 15.3105 12.3145L14.0791 11.2529C13.8367 11.044 13.5973 10.8398 13.4277 10.6484C13.2487 10.4462 13.0519 10.154 13.0518 9.75879C13.0518 9.36362 13.2487 9.07244 13.4277 8.87012C13.5972 8.67866 13.8365 8.47374 14.0791 8.26465L15.3105 7.20313ZM5.24023 8.03223C5.63947 8.03223 5.96289 8.35565 5.96289 8.75488C5.96263 9.15389 5.6393 9.47754 5.24023 9.47754H3.73438C3.33543 9.47739 3.01198 9.1538 3.01172 8.75488C3.01172 8.35574 3.33527 8.03238 3.73438 8.03223H5.24023ZM5.24023 4.0166C5.63947 4.0166 5.96289 4.34003 5.96289 4.73926C5.96263 5.13826 5.6393 5.46191 5.24023 5.46191H3.73438C3.33543 5.46177 3.01198 5.13817 3.01172 4.73926C3.01172 4.34012 3.33527 4.01675 3.73438 4.0166H5.24023Z" fill="white"/>
</svg>
