<svg width="15" height="19" viewBox="0 0 15 19" fill="none" xmlns="http://www.w3.org/2000/svg">
<path d="M12.7314 5.45605C12.9856 5.45616 13.2283 5.56297 13.4004 5.75C13.5723 5.93699 13.6587 6.1873 13.6377 6.44043L12.9365 14.8506C12.7794 16.7357 11.2032 18.1855 9.31152 18.1855H5.23828C3.34668 18.1854 1.77138 16.7356 1.61426 14.8506L0.913086 6.44043C0.892016 6.18716 0.978361 5.93703 1.15039 5.75C1.32262 5.56288 1.565 5.45605 1.81934 5.45605H12.7314ZM8.99219 0C9.66174 5.31744e-05 10.2041 0.543345 10.2041 1.21289C10.2043 1.54749 10.4759 1.81826 10.8105 1.81836H13.6396C14.1418 1.81836 14.5488 2.22634 14.5488 2.72852C14.5486 3.23049 14.1417 3.6377 13.6396 3.6377H0.90918C0.407126 3.63767 0.000236328 3.23048 0 2.72852C0 2.22635 0.40698 1.81838 0.90918 1.81836H3.73926C4.07346 1.81779 4.34457 1.5472 4.34473 1.21289C4.34473 0.543383 4.88711 0.000115543 5.55664 0H8.99219Z" fill="#FCFCFC"/>
</svg>
